<mxfile host="app.diagrams.net" agent="Mozilla/5.0 (X11; Linux x86_64) AppleWebKit/537.36 (KHTML, like Gecko) Chrome/135.0.0.0 Safari/537.36" version="26.2.14">
  <diagram name="Page-1" id="4kzlrSVwVKq-RgYXq8-i">
    <mxGraphModel dx="2007" dy="661" grid="1" gridSize="10" guides="1" tooltips="1" connect="1" arrows="1" fold="1" page="1" pageScale="1" pageWidth="827" pageHeight="1169" math="0" shadow="0">
      <root>
        <mxCell id="0" />
        <mxCell id="1" parent="0" />
        <mxCell id="TfcrKleMIAwzaFj7VAI1-1" value="User" style="shape=umlActor;verticalLabelPosition=bottom;verticalAlign=top;html=1;outlineConnect=0;" vertex="1" parent="1">
          <mxGeometry x="90" y="100" width="30" height="60" as="geometry" />
        </mxCell>
        <mxCell id="TfcrKleMIAwzaFj7VAI1-3" value="Ticketing System" style="rounded=0;whiteSpace=wrap;html=1;" vertex="1" parent="1">
          <mxGeometry x="240" y="100" width="120" height="60" as="geometry" />
        </mxCell>
        <mxCell id="TfcrKleMIAwzaFj7VAI1-4" value="Database" style="rounded=0;whiteSpace=wrap;html=1;" vertex="1" parent="1">
          <mxGeometry x="480" y="100" width="120" height="60" as="geometry" />
        </mxCell>
        <mxCell id="TfcrKleMIAwzaFj7VAI1-5" value="" style="endArrow=none;dashed=1;html=1;rounded=0;" edge="1" parent="1" source="TfcrKleMIAwzaFj7VAI1-75" target="TfcrKleMIAwzaFj7VAI1-4">
          <mxGeometry width="50" height="50" relative="1" as="geometry">
            <mxPoint x="540" y="660" as="sourcePoint" />
            <mxPoint x="500" y="470" as="targetPoint" />
          </mxGeometry>
        </mxCell>
        <mxCell id="TfcrKleMIAwzaFj7VAI1-6" value="" style="endArrow=none;dashed=1;html=1;rounded=0;" edge="1" parent="1" source="TfcrKleMIAwzaFj7VAI1-73" target="TfcrKleMIAwzaFj7VAI1-3">
          <mxGeometry width="50" height="50" relative="1" as="geometry">
            <mxPoint x="300" y="660" as="sourcePoint" />
            <mxPoint x="500" y="470" as="targetPoint" />
          </mxGeometry>
        </mxCell>
        <mxCell id="TfcrKleMIAwzaFj7VAI1-7" value="" style="endArrow=none;dashed=1;html=1;rounded=0;" edge="1" parent="1" source="TfcrKleMIAwzaFj7VAI1-69" target="TfcrKleMIAwzaFj7VAI1-1">
          <mxGeometry width="50" height="50" relative="1" as="geometry">
            <mxPoint x="105" y="660" as="sourcePoint" />
            <mxPoint x="500" y="470" as="targetPoint" />
          </mxGeometry>
        </mxCell>
        <mxCell id="TfcrKleMIAwzaFj7VAI1-8" value="" style="endArrow=classic;html=1;rounded=0;" edge="1" parent="1">
          <mxGeometry width="50" height="50" relative="1" as="geometry">
            <mxPoint x="120" y="200" as="sourcePoint" />
            <mxPoint x="290" y="200" as="targetPoint" />
          </mxGeometry>
        </mxCell>
        <mxCell id="TfcrKleMIAwzaFj7VAI1-11" value="Select Ticket" style="edgeLabel;html=1;align=center;verticalAlign=middle;resizable=0;points=[];" vertex="1" connectable="0" parent="TfcrKleMIAwzaFj7VAI1-8">
          <mxGeometry x="0.0057" y="2" relative="1" as="geometry">
            <mxPoint as="offset" />
          </mxGeometry>
        </mxCell>
        <mxCell id="TfcrKleMIAwzaFj7VAI1-12" value="" style="endArrow=classic;html=1;rounded=0;dashed=1;" edge="1" parent="1">
          <mxGeometry width="50" height="50" relative="1" as="geometry">
            <mxPoint x="290" y="240" as="sourcePoint" />
            <mxPoint x="120" y="240" as="targetPoint" />
          </mxGeometry>
        </mxCell>
        <mxCell id="TfcrKleMIAwzaFj7VAI1-13" value="Display Ticket" style="edgeLabel;html=1;align=center;verticalAlign=middle;resizable=0;points=[];" vertex="1" connectable="0" parent="TfcrKleMIAwzaFj7VAI1-12">
          <mxGeometry x="0.0114" y="1" relative="1" as="geometry">
            <mxPoint as="offset" />
          </mxGeometry>
        </mxCell>
        <mxCell id="TfcrKleMIAwzaFj7VAI1-14" value="" style="endArrow=classic;html=1;rounded=0;" edge="1" parent="1">
          <mxGeometry width="50" height="50" relative="1" as="geometry">
            <mxPoint x="310" y="210" as="sourcePoint" />
            <mxPoint x="520" y="210" as="targetPoint" />
          </mxGeometry>
        </mxCell>
        <mxCell id="TfcrKleMIAwzaFj7VAI1-18" value="Fetch Ticket Info" style="edgeLabel;html=1;align=center;verticalAlign=middle;resizable=0;points=[];" vertex="1" connectable="0" parent="TfcrKleMIAwzaFj7VAI1-14">
          <mxGeometry x="0.0057" y="1" relative="1" as="geometry">
            <mxPoint as="offset" />
          </mxGeometry>
        </mxCell>
        <mxCell id="TfcrKleMIAwzaFj7VAI1-15" value="Payment Gateway" style="rounded=0;whiteSpace=wrap;html=1;" vertex="1" parent="1">
          <mxGeometry x="720" y="100" width="120" height="60" as="geometry" />
        </mxCell>
        <mxCell id="TfcrKleMIAwzaFj7VAI1-17" value="" style="endArrow=none;dashed=1;html=1;rounded=0;" edge="1" parent="1" target="TfcrKleMIAwzaFj7VAI1-15">
          <mxGeometry width="50" height="50" relative="1" as="geometry">
            <mxPoint x="780" y="660" as="sourcePoint" />
            <mxPoint x="570" y="380" as="targetPoint" />
          </mxGeometry>
        </mxCell>
        <mxCell id="TfcrKleMIAwzaFj7VAI1-19" value="" style="endArrow=classic;html=1;rounded=0;dashed=1;" edge="1" parent="1">
          <mxGeometry width="50" height="50" relative="1" as="geometry">
            <mxPoint x="520" y="230" as="sourcePoint" />
            <mxPoint x="310" y="230" as="targetPoint" />
          </mxGeometry>
        </mxCell>
        <mxCell id="TfcrKleMIAwzaFj7VAI1-20" value="Retrieve Ticket Info" style="edgeLabel;html=1;align=center;verticalAlign=middle;resizable=0;points=[];" vertex="1" connectable="0" parent="TfcrKleMIAwzaFj7VAI1-19">
          <mxGeometry y="-1" relative="1" as="geometry">
            <mxPoint as="offset" />
          </mxGeometry>
        </mxCell>
        <mxCell id="TfcrKleMIAwzaFj7VAI1-21" value="" style="endArrow=classic;html=1;rounded=0;" edge="1" parent="1">
          <mxGeometry width="50" height="50" relative="1" as="geometry">
            <mxPoint x="120" y="260" as="sourcePoint" />
            <mxPoint x="290" y="260" as="targetPoint" />
          </mxGeometry>
        </mxCell>
        <mxCell id="TfcrKleMIAwzaFj7VAI1-22" value="Select Upgrade to First Class" style="edgeLabel;html=1;align=center;verticalAlign=middle;resizable=0;points=[];" vertex="1" connectable="0" parent="TfcrKleMIAwzaFj7VAI1-21">
          <mxGeometry x="-0.0429" relative="1" as="geometry">
            <mxPoint as="offset" />
          </mxGeometry>
        </mxCell>
        <mxCell id="TfcrKleMIAwzaFj7VAI1-23" value="" style="endArrow=classic;html=1;rounded=0;" edge="1" parent="1">
          <mxGeometry width="50" height="50" relative="1" as="geometry">
            <mxPoint x="310" y="400" as="sourcePoint" />
            <mxPoint x="760" y="400" as="targetPoint" />
          </mxGeometry>
        </mxCell>
        <mxCell id="TfcrKleMIAwzaFj7VAI1-24" value="Payment Process" style="edgeLabel;html=1;align=center;verticalAlign=middle;resizable=0;points=[];" vertex="1" connectable="0" parent="TfcrKleMIAwzaFj7VAI1-23">
          <mxGeometry x="-0.0312" y="-2" relative="1" as="geometry">
            <mxPoint as="offset" />
          </mxGeometry>
        </mxCell>
        <mxCell id="TfcrKleMIAwzaFj7VAI1-25" value="" style="endArrow=classic;html=1;rounded=0;" edge="1" parent="1">
          <mxGeometry width="50" height="50" relative="1" as="geometry">
            <mxPoint x="760" y="420" as="sourcePoint" />
            <mxPoint x="310" y="420" as="targetPoint" />
          </mxGeometry>
        </mxCell>
        <mxCell id="TfcrKleMIAwzaFj7VAI1-26" value="Payment Process Confirmation" style="edgeLabel;html=1;align=center;verticalAlign=middle;resizable=0;points=[];" vertex="1" connectable="0" parent="TfcrKleMIAwzaFj7VAI1-25">
          <mxGeometry x="0.0182" y="1" relative="1" as="geometry">
            <mxPoint as="offset" />
          </mxGeometry>
        </mxCell>
        <mxCell id="TfcrKleMIAwzaFj7VAI1-31" value="" style="endArrow=classic;html=1;rounded=0;" edge="1" parent="1">
          <mxGeometry width="50" height="50" relative="1" as="geometry">
            <mxPoint x="310" y="280" as="sourcePoint" />
            <mxPoint x="520" y="280" as="targetPoint" />
          </mxGeometry>
        </mxCell>
        <mxCell id="TfcrKleMIAwzaFj7VAI1-32" value="Check First Class Availablity" style="edgeLabel;html=1;align=center;verticalAlign=middle;resizable=0;points=[];" vertex="1" connectable="0" parent="TfcrKleMIAwzaFj7VAI1-31">
          <mxGeometry x="0.0229" relative="1" as="geometry">
            <mxPoint as="offset" />
          </mxGeometry>
        </mxCell>
        <mxCell id="TfcrKleMIAwzaFj7VAI1-33" value="" style="endArrow=classic;html=1;rounded=0;dashed=1;" edge="1" parent="1">
          <mxGeometry width="50" height="50" relative="1" as="geometry">
            <mxPoint x="520" y="300" as="sourcePoint" />
            <mxPoint x="310" y="300" as="targetPoint" />
          </mxGeometry>
        </mxCell>
        <mxCell id="TfcrKleMIAwzaFj7VAI1-34" value="Return Available Seats" style="edgeLabel;html=1;align=center;verticalAlign=middle;resizable=0;points=[];" vertex="1" connectable="0" parent="TfcrKleMIAwzaFj7VAI1-33">
          <mxGeometry x="0.0057" y="1" relative="1" as="geometry">
            <mxPoint as="offset" />
          </mxGeometry>
        </mxCell>
        <mxCell id="TfcrKleMIAwzaFj7VAI1-36" value="" style="endArrow=classic;html=1;rounded=0;dashed=1;" edge="1" parent="1">
          <mxGeometry width="50" height="50" relative="1" as="geometry">
            <mxPoint x="290" y="320" as="sourcePoint" />
            <mxPoint x="120" y="320" as="targetPoint" />
          </mxGeometry>
        </mxCell>
        <mxCell id="TfcrKleMIAwzaFj7VAI1-37" value="Show Upgrade Cost &amp;amp; Options" style="edgeLabel;html=1;align=center;verticalAlign=middle;resizable=0;points=[];" vertex="1" connectable="0" parent="TfcrKleMIAwzaFj7VAI1-36">
          <mxGeometry y="2" relative="1" as="geometry">
            <mxPoint as="offset" />
          </mxGeometry>
        </mxCell>
        <mxCell id="TfcrKleMIAwzaFj7VAI1-38" value="" style="endArrow=classic;html=1;rounded=0;" edge="1" parent="1">
          <mxGeometry width="50" height="50" relative="1" as="geometry">
            <mxPoint x="120" y="340" as="sourcePoint" />
            <mxPoint x="290" y="340" as="targetPoint" />
          </mxGeometry>
        </mxCell>
        <mxCell id="TfcrKleMIAwzaFj7VAI1-39" value="Pick Options" style="edgeLabel;html=1;align=center;verticalAlign=middle;resizable=0;points=[];" vertex="1" connectable="0" parent="TfcrKleMIAwzaFj7VAI1-38">
          <mxGeometry x="-0.0286" y="-2" relative="1" as="geometry">
            <mxPoint as="offset" />
          </mxGeometry>
        </mxCell>
        <mxCell id="TfcrKleMIAwzaFj7VAI1-40" value="" style="endArrow=classic;html=1;rounded=0;dashed=1;" edge="1" parent="1">
          <mxGeometry width="50" height="50" relative="1" as="geometry">
            <mxPoint x="290" y="360" as="sourcePoint" />
            <mxPoint x="120" y="360" as="targetPoint" />
          </mxGeometry>
        </mxCell>
        <mxCell id="TfcrKleMIAwzaFj7VAI1-41" value="Payment Dialog" style="edgeLabel;html=1;align=center;verticalAlign=middle;resizable=0;points=[];" vertex="1" connectable="0" parent="TfcrKleMIAwzaFj7VAI1-40">
          <mxGeometry x="-0.0143" relative="1" as="geometry">
            <mxPoint as="offset" />
          </mxGeometry>
        </mxCell>
        <mxCell id="TfcrKleMIAwzaFj7VAI1-42" value="" style="endArrow=classic;html=1;rounded=0;" edge="1" parent="1">
          <mxGeometry width="50" height="50" relative="1" as="geometry">
            <mxPoint x="120" y="380" as="sourcePoint" />
            <mxPoint x="290" y="380" as="targetPoint" />
          </mxGeometry>
        </mxCell>
        <mxCell id="TfcrKleMIAwzaFj7VAI1-43" value="Payment" style="edgeLabel;html=1;align=center;verticalAlign=middle;resizable=0;points=[];" vertex="1" connectable="0" parent="TfcrKleMIAwzaFj7VAI1-42">
          <mxGeometry x="-0.0357" y="-2" relative="1" as="geometry">
            <mxPoint as="offset" />
          </mxGeometry>
        </mxCell>
        <mxCell id="TfcrKleMIAwzaFj7VAI1-45" value="" style="endArrow=classic;html=1;rounded=0;dashed=1;" edge="1" parent="1">
          <mxGeometry width="50" height="50" relative="1" as="geometry">
            <mxPoint x="290" y="430" as="sourcePoint" />
            <mxPoint x="120" y="430" as="targetPoint" />
          </mxGeometry>
        </mxCell>
        <mxCell id="TfcrKleMIAwzaFj7VAI1-46" value="Invoice" style="edgeLabel;html=1;align=center;verticalAlign=middle;resizable=0;points=[];" vertex="1" connectable="0" parent="TfcrKleMIAwzaFj7VAI1-45">
          <mxGeometry x="0.0118" y="1" relative="1" as="geometry">
            <mxPoint as="offset" />
          </mxGeometry>
        </mxCell>
        <mxCell id="TfcrKleMIAwzaFj7VAI1-47" value="" style="endArrow=classic;html=1;rounded=0;" edge="1" parent="1">
          <mxGeometry width="50" height="50" relative="1" as="geometry">
            <mxPoint x="310" y="450" as="sourcePoint" />
            <mxPoint x="530" y="450" as="targetPoint" />
          </mxGeometry>
        </mxCell>
        <mxCell id="TfcrKleMIAwzaFj7VAI1-49" value="Update Ticket Information &amp;amp; reserve Seat" style="edgeLabel;html=1;align=center;verticalAlign=middle;resizable=0;points=[];" vertex="1" connectable="0" parent="TfcrKleMIAwzaFj7VAI1-47">
          <mxGeometry x="-0.0182" y="-2" relative="1" as="geometry">
            <mxPoint as="offset" />
          </mxGeometry>
        </mxCell>
        <mxCell id="TfcrKleMIAwzaFj7VAI1-50" value="" style="endArrow=classic;html=1;rounded=0;dashed=1;" edge="1" parent="1">
          <mxGeometry width="50" height="50" relative="1" as="geometry">
            <mxPoint x="530" y="470" as="sourcePoint" />
            <mxPoint x="310" y="470" as="targetPoint" />
          </mxGeometry>
        </mxCell>
        <mxCell id="TfcrKleMIAwzaFj7VAI1-51" value="Update Confirmation" style="edgeLabel;html=1;align=center;verticalAlign=middle;resizable=0;points=[];" vertex="1" connectable="0" parent="TfcrKleMIAwzaFj7VAI1-50">
          <mxGeometry x="-0.0171" relative="1" as="geometry">
            <mxPoint as="offset" />
          </mxGeometry>
        </mxCell>
        <mxCell id="TfcrKleMIAwzaFj7VAI1-52" value="" style="endArrow=classic;html=1;rounded=0;" edge="1" parent="1">
          <mxGeometry width="50" height="50" relative="1" as="geometry">
            <mxPoint x="290" y="490" as="sourcePoint" />
            <mxPoint x="120" y="490" as="targetPoint" />
          </mxGeometry>
        </mxCell>
        <mxCell id="TfcrKleMIAwzaFj7VAI1-53" value="Show Updated Ticket" style="edgeLabel;html=1;align=center;verticalAlign=middle;resizable=0;points=[];" vertex="1" connectable="0" parent="TfcrKleMIAwzaFj7VAI1-52">
          <mxGeometry x="0.0454" y="2" relative="1" as="geometry">
            <mxPoint as="offset" />
          </mxGeometry>
        </mxCell>
        <mxCell id="TfcrKleMIAwzaFj7VAI1-56" value="" style="rounded=0;whiteSpace=wrap;html=1;fillColor=none;" vertex="1" parent="1">
          <mxGeometry x="-20" y="290" width="920" height="370" as="geometry" />
        </mxCell>
        <mxCell id="TfcrKleMIAwzaFj7VAI1-59" value="Alternative" style="rounded=0;whiteSpace=wrap;html=1;" vertex="1" parent="1">
          <mxGeometry x="-20" y="290" width="80" height="30" as="geometry" />
        </mxCell>
        <mxCell id="TfcrKleMIAwzaFj7VAI1-61" value="If Seats are Available" style="text;html=1;align=center;verticalAlign=middle;whiteSpace=wrap;rounded=0;" vertex="1" parent="1">
          <mxGeometry y="370" width="60" height="30" as="geometry" />
        </mxCell>
        <mxCell id="TfcrKleMIAwzaFj7VAI1-62" value="If no seats are Available" style="text;html=1;align=center;verticalAlign=middle;whiteSpace=wrap;rounded=0;" vertex="1" parent="1">
          <mxGeometry x="10" y="550" width="70" height="30" as="geometry" />
        </mxCell>
        <mxCell id="TfcrKleMIAwzaFj7VAI1-63" value="" style="endArrow=classic;html=1;rounded=0;dashed=1;" edge="1" parent="1">
          <mxGeometry width="50" height="50" relative="1" as="geometry">
            <mxPoint x="530" y="530" as="sourcePoint" />
            <mxPoint x="310" y="530" as="targetPoint" />
          </mxGeometry>
        </mxCell>
        <mxCell id="TfcrKleMIAwzaFj7VAI1-64" value="Return No seats available" style="edgeLabel;html=1;align=center;verticalAlign=middle;resizable=0;points=[];" vertex="1" connectable="0" parent="TfcrKleMIAwzaFj7VAI1-63">
          <mxGeometry x="-0.0104" y="1" relative="1" as="geometry">
            <mxPoint as="offset" />
          </mxGeometry>
        </mxCell>
        <mxCell id="TfcrKleMIAwzaFj7VAI1-65" value="" style="endArrow=classic;html=1;rounded=0;dashed=1;" edge="1" parent="1">
          <mxGeometry width="50" height="50" relative="1" as="geometry">
            <mxPoint x="290" y="540" as="sourcePoint" />
            <mxPoint x="120" y="540" as="targetPoint" />
          </mxGeometry>
        </mxCell>
        <mxCell id="TfcrKleMIAwzaFj7VAI1-66" value="Display No available Seats" style="edgeLabel;html=1;align=center;verticalAlign=middle;resizable=0;points=[];" vertex="1" connectable="0" parent="TfcrKleMIAwzaFj7VAI1-65">
          <mxGeometry x="0.0118" y="2" relative="1" as="geometry">
            <mxPoint as="offset" />
          </mxGeometry>
        </mxCell>
        <mxCell id="TfcrKleMIAwzaFj7VAI1-67" value="" style="endArrow=none;dashed=1;html=1;dashPattern=1 3;strokeWidth=2;rounded=0;entryX=1.001;entryY=0.597;entryDx=0;entryDy=0;entryPerimeter=0;exitX=-0.003;exitY=0.597;exitDx=0;exitDy=0;exitPerimeter=0;" edge="1" parent="1" source="TfcrKleMIAwzaFj7VAI1-56" target="TfcrKleMIAwzaFj7VAI1-56">
          <mxGeometry width="50" height="50" relative="1" as="geometry">
            <mxPoint y="510" as="sourcePoint" />
            <mxPoint x="860" y="510" as="targetPoint" />
          </mxGeometry>
        </mxCell>
        <mxCell id="TfcrKleMIAwzaFj7VAI1-68" value="" style="rounded=0;whiteSpace=wrap;html=1;" vertex="1" parent="1">
          <mxGeometry x="100" y="190" width="10" height="20" as="geometry" />
        </mxCell>
        <mxCell id="TfcrKleMIAwzaFj7VAI1-70" value="" style="endArrow=none;dashed=1;html=1;rounded=0;" edge="1" parent="1" source="TfcrKleMIAwzaFj7VAI1-71" target="TfcrKleMIAwzaFj7VAI1-69">
          <mxGeometry width="50" height="50" relative="1" as="geometry">
            <mxPoint x="105" y="660" as="sourcePoint" />
            <mxPoint x="105" y="160" as="targetPoint" />
          </mxGeometry>
        </mxCell>
        <mxCell id="TfcrKleMIAwzaFj7VAI1-69" value="" style="rounded=0;whiteSpace=wrap;html=1;" vertex="1" parent="1">
          <mxGeometry x="100" y="250" width="10" height="20" as="geometry" />
        </mxCell>
        <mxCell id="TfcrKleMIAwzaFj7VAI1-72" value="" style="endArrow=none;dashed=1;html=1;rounded=0;" edge="1" parent="1" target="TfcrKleMIAwzaFj7VAI1-71">
          <mxGeometry width="50" height="50" relative="1" as="geometry">
            <mxPoint x="105" y="660" as="sourcePoint" />
            <mxPoint x="105" y="270" as="targetPoint" />
          </mxGeometry>
        </mxCell>
        <mxCell id="TfcrKleMIAwzaFj7VAI1-71" value="" style="rounded=0;whiteSpace=wrap;html=1;" vertex="1" parent="1">
          <mxGeometry x="100" y="330" width="10" height="60" as="geometry" />
        </mxCell>
        <mxCell id="TfcrKleMIAwzaFj7VAI1-74" value="" style="endArrow=none;dashed=1;html=1;rounded=0;" edge="1" parent="1" target="TfcrKleMIAwzaFj7VAI1-73">
          <mxGeometry width="50" height="50" relative="1" as="geometry">
            <mxPoint x="300" y="660" as="sourcePoint" />
            <mxPoint x="300" y="160" as="targetPoint" />
          </mxGeometry>
        </mxCell>
        <mxCell id="TfcrKleMIAwzaFj7VAI1-73" value="" style="rounded=0;whiteSpace=wrap;html=1;" vertex="1" parent="1">
          <mxGeometry x="295" y="190" width="10" height="360" as="geometry" />
        </mxCell>
        <mxCell id="TfcrKleMIAwzaFj7VAI1-76" value="" style="endArrow=none;dashed=1;html=1;rounded=0;" edge="1" parent="1" source="TfcrKleMIAwzaFj7VAI1-77" target="TfcrKleMIAwzaFj7VAI1-75">
          <mxGeometry width="50" height="50" relative="1" as="geometry">
            <mxPoint x="540" y="660" as="sourcePoint" />
            <mxPoint x="540" y="160" as="targetPoint" />
          </mxGeometry>
        </mxCell>
        <mxCell id="TfcrKleMIAwzaFj7VAI1-75" value="" style="rounded=0;whiteSpace=wrap;html=1;" vertex="1" parent="1">
          <mxGeometry x="535" y="200" width="10" height="40" as="geometry" />
        </mxCell>
        <mxCell id="TfcrKleMIAwzaFj7VAI1-78" value="" style="endArrow=none;dashed=1;html=1;rounded=0;" edge="1" parent="1" source="TfcrKleMIAwzaFj7VAI1-79" target="TfcrKleMIAwzaFj7VAI1-77">
          <mxGeometry width="50" height="50" relative="1" as="geometry">
            <mxPoint x="540" y="660" as="sourcePoint" />
            <mxPoint x="540" y="250" as="targetPoint" />
          </mxGeometry>
        </mxCell>
        <mxCell id="TfcrKleMIAwzaFj7VAI1-77" value="" style="rounded=0;whiteSpace=wrap;html=1;" vertex="1" parent="1">
          <mxGeometry x="535" y="270" width="10" height="40" as="geometry" />
        </mxCell>
        <mxCell id="TfcrKleMIAwzaFj7VAI1-80" value="" style="endArrow=none;dashed=1;html=1;rounded=0;" edge="1" parent="1" source="TfcrKleMIAwzaFj7VAI1-81" target="TfcrKleMIAwzaFj7VAI1-79">
          <mxGeometry width="50" height="50" relative="1" as="geometry">
            <mxPoint x="540" y="660" as="sourcePoint" />
            <mxPoint x="540" y="310" as="targetPoint" />
          </mxGeometry>
        </mxCell>
        <mxCell id="TfcrKleMIAwzaFj7VAI1-79" value="" style="rounded=0;whiteSpace=wrap;html=1;" vertex="1" parent="1">
          <mxGeometry x="535" y="440" width="10" height="40" as="geometry" />
        </mxCell>
        <mxCell id="TfcrKleMIAwzaFj7VAI1-82" value="" style="endArrow=none;dashed=1;html=1;rounded=0;" edge="1" parent="1" target="TfcrKleMIAwzaFj7VAI1-81">
          <mxGeometry width="50" height="50" relative="1" as="geometry">
            <mxPoint x="540" y="660" as="sourcePoint" />
            <mxPoint x="540" y="480" as="targetPoint" />
          </mxGeometry>
        </mxCell>
        <mxCell id="TfcrKleMIAwzaFj7VAI1-81" value="" style="rounded=0;whiteSpace=wrap;html=1;" vertex="1" parent="1">
          <mxGeometry x="535" y="520" width="10" height="20" as="geometry" />
        </mxCell>
        <mxCell id="TfcrKleMIAwzaFj7VAI1-83" value="" style="rounded=0;whiteSpace=wrap;html=1;" vertex="1" parent="1">
          <mxGeometry x="775" y="390" width="10" height="40" as="geometry" />
        </mxCell>
      </root>
    </mxGraphModel>
  </diagram>
</mxfile>
